<?xml version="1.0" encoding="iso-8859-1"?>
<!-- Generator: Adobe Illustrator 21.1.0, SVG Export Plug-In . SVG Version: 6.00 Build 0)  -->
<svg version="1.1" id="_x38_" xmlns="http://www.w3.org/2000/svg" xmlns:xlink="http://www.w3.org/1999/xlink" x="0px" y="0px"
	 viewBox="0 0 512 512" style="enable-background:new 0 0 512 512;" xml:space="preserve">
<g>
	<path style="fill:#FFFFFF;" d="M432.915,119.347c-6.752-0.844-37.138-8.441-59.928-5.064
		c-22.789,3.376-59.927,13.505-69.212,11.817c-9.284-1.688-21.101-6.752-27.854-21.101c-6.752-14.349-5.064-26.166-6.752-29.542
		s3.376-27.01,0.844-41.359c-2.532-14.349-14.349-19.413-18.569-20.257c-4.22-0.844-43.891,15.193-43.891,15.193
		c-14.349,10.973-27.854,22.789-23.633,39.67c4.22,16.881,5.908,41.358-7.596,59.084c-13.505,17.725-54.019,60.772-68.368,88.625
		c-14.349,27.854-32.918,75.964-33.762,94.534c-0.844,18.569,16.037,24.477,21.945,21.101c5.908-3.376,13.505-19.413,18.569-26.166
		c2.4-3.2,12.116-17.01,22.699-30.838c4.211,35.599,5.781,72.852,4.311,77.261c-2.532,7.596-0.844,30.386,0,49.799
		c0.597,13.727,8.441,24.477,15.193,28.698c6.752,4.22,24.477-3.376,29.542-6.752c5.064-3.376,18.569-10.973,20.257-21.945
		c1.688-10.973,4.22-14.349,4.22-14.349l-2.532-9.284c0,0,0.135-0.406,7.596-0.844c7.461-0.438,2.348,11.955,1.688,20.257
		c-0.659,8.302,2.532,14.349,12.661,16.881c10.129,2.532,23.633,3.376,36.294-6.752c12.661-10.129,14.349-16.881,13.505-21.945
		c-0.844-5.064,2.532-14.349,2.532-14.349s22.789-19.413,29.542-48.111c6.752-28.698,4.22-52.331,1.688-65.836
		c-2.532-13.505-9.284-36.294-10.973-41.359c-0.299-0.897-0.006-2.008,0.732-3.276c-0.156-0.011-0.312-0.016-0.469-0.026
		c10.752-8.187,35.168-27.634,39.407-30.461c5.064-3.376,31.23-22.789,49.799-28.698c18.569-5.908,23.633-11.817,30.386-16.881
		C429.538,132.007,439.667,120.191,432.915,119.347z"/>
	<path style="fill:#ED7342;" d="M280.142,67.86c-10.129,5.064-16.881,6.752-21.101,1.688c-4.22-5.064,13.629-26.233,18.694-31.297
		s7.472-0.777,19.289,0.068c11.817,0.844,21.945,4.22,22.789,6.752c0.844,2.532,5.064,5.908-7.596,10.129
		c-12.661,4.22-21.101,8.441-23.633,8.441C286.05,63.639,280.142,67.86,280.142,67.86z"/>
	<path style="fill:#ED7342;" d="M159.443,431.645c3.376,10.973-4.22,33.762-6.752,38.826c-2.532,5.064-16.037,15.193-16.881,20.257
		c-0.844,5.064-2.223,9.742,5.064,7.596c6.894-2.03,24.091-8.528,27.01-8.44c2.919,0.087,9.285,12.661,16.881,18.569
		c7.596,5.908,8.44-0.844,5.064-13.505c10.129,0.844,12.577-2.542,17.725,0.844c5.148,3.386,14.349,2.532,10.129-5.064
		c-4.22-7.596-11.817-11.817-24.477-17.725c-10.817-5.048-16.037-10.129-15.193-22.789c0.844-12.661-0.844-20.257-0.844-20.257
		l-6.752-5.908l-12.661,2.532L159.443,431.645z"/>
	<path style="fill:#ED7342;" d="M233.719,419.828c0.844,10.129,0.77,23.69-2.532,30.386c-3.302,6.696-10.129,8.44-12.661,12.661
		c-2.532,4.22-5.064,10.129,1.688,10.129c6.752,0,16.037-5.908,21.101-4.22c5.064,1.688,10.129,4.22,16.037,10.129
		c5.908,5.908,10.129,9.285,12.661,5.908c2.532-3.376,4.22-9.285-1.688-13.505c-5.908-4.22,2.223-0.056,8.44-1.688
		c5.596-1.469,18.445,6.517,16.881,3.376c-1.564-3.141,1.688-5.908-4.22-9.285c-5.908-3.376-20.257-8.44-24.478-10.973
		c-4.22-2.532-8.44-8.44-9.285-15.193c-0.844-6.752-2.532-19.413-2.532-19.413s-10.973,0.844-16.037-0.844
		S233.719,419.828,233.719,419.828z"/>
	<g>
		<path style="fill:#231815;" d="M265.771,33.575c8.274-13.657-1.816-26.082-14.904-30.71C234.561-2.9,215.548,0.698,200.28,7.775
			c-14.306,6.631-26.92,17.469-32.227,32.696c-5.643,16.189-1.386,32.929,0.909,49.301c2.321,16.556,1.189,31.605-7.486,46.283
			c-8.756,14.814-21.381,26.911-32.834,39.59C107.921,198.581,95.9,226.13,85.32,254.885c-5.473,14.875-10.79,30.018-14.69,45.391
			c-3.189,12.57-8.531,37.659,8.651,42.794c1.649,0.493,16.151,0.722,14.497-3.498c-0.317-0.809-8.587-0.508-9.728-0.734
			c-4.367-0.865-7.265-3.266-8.914-7.463c-5.251-13.362-0.035-31.643,3.656-44.709c4.566-16.162,10.728-31.825,17.069-47.357
			c5.153-12.623,10.188-25.538,17.402-37.159c17.036-27.443,48.816-46.229,59.221-77.74c10.763-32.597-13.612-70.232,12.461-98.451
			c11.818-12.791,30.33-19.833,47.613-18.934c7.865,0.409,15.587,2.514,21.76,7.612C260.62,19.84,262.355,26.573,265.771,33.575z"/>
		<path style="fill:#231815;" d="M309.796,58.534c6.746-2.214,20.576-9.137,9.332-15.631c-6.51-3.76-15.848-6.57-23.269-7.993
			c-2.806-0.538-9.762-1.512-11.457,1.807c-2.117,4.146,5.123,5.042,7.547,5.351c8.313,1.058,16.428,0.19,24.427,3.697
			c9.664,4.237-4.534,8.967-9.007,10.274c-9.638,2.816-21.264,4.612-29.649,10.473c-1.533,1.072-6.617,6.129-2.801,7.353
			c2.398,0.77,8.206-5.125,9.813-6.067C292.426,63.287,301.389,61.263,309.796,58.534z"/>
		<path style="fill:#231815;" d="M263.027,59.795c2.449-4.382,5.404-8.917,9.056-12.418c2.175-2.086,7.043-4.467,4.873-8.283
			c-4.771-8.387-13.131,13.227-14.498,15.601c-1.45,2.518-12.054,19.223-0.744,17.685c1.389-0.189,2.724-0.667,3.044-2.194
			c0.531-2.533-1.493-2.066-2.481-2.923c-1.301-1.128-0.794,1.745-1.994-1.058C259.728,64.905,262.468,60.806,263.027,59.795z"/>
		<path style="fill:#231815;" d="M269.505,86.615c5.67,10.448,9.621,23.151,19.837,30.22c7.73,5.35,18.652,4.603,27.542,3.595
			c14.167-1.606,27.958-5.423,41.971-7.92c12.29-2.19,24.068-2.149,36.474-1.409c8.862,0.529,63.07,3.088,46.159,21.346
			c-8.394,9.063-24.441,12.359-35.381,17.373c-12.255,5.617-24.938,10.316-36.635,17.087c-12.374,7.164-23.649,15.953-34.745,24.925
			c-2.916,2.358-25.605,22.139-28.194,19.01c-1.981-2.394,51.387-40.773,55.655-43.38c22.022-13.454,47.212-19.853,69.955-31.677
			c5.616-2.92,15.559-9.659,5.869-15.258c-9.478-5.476-23.378-5.428-34.005-5.378c-13.175,0.062-26.296-0.685-39.336,1.589
			c-14.508,2.531-28.67,6.762-43.229,9.033c-12.76,1.991-28.458,3.281-39.258-5.302C271.909,112.306,270.067,98.886,269.505,86.615z
			"/>
		<path style="fill:#231815;" d="M303.635,192.532c-1.529,6.788-0.186,11.679,2.011,17.97c2.379,6.812,3.872,14.013,5.588,21.011
			c3.703,15.105,8.367,31.284,9.464,46.863c2.043,29.01-6.49,61.807-25.11,84.504c-4.798,5.849-10.45,9.799-17.668,12.181
			c-3.167,1.045-6.81,2.027-10.186,1.856c-6.74-0.342-2.617-4.065,1.369-5.321c7.66-2.413,14.322-1.938,20.574-7.815
			c5.998-5.637,10.666-13.155,13.714-20.738c5.999-14.924,6.925-30.437,9.323-46.114c2.189-14.311,4.136-28.628,1.08-42.936
			c-3.422-16.016-7.477-31.537-16.154-45.385c-3.434-5.481-7.899-12.742-3.358-19.127c1.161-1.632,4.621-4.48,6.816-3.966
			C304.137,186.227,302.133,189.552,303.635,192.532z"/>
		<path style="fill:#231815;" d="M186.22,226.15c-0.787,7.58-3.471,11.593-9.555,15.572c-7.854,5.136-15.12,11.678-22.167,17.836
			c-6.777,5.921-13.7,11.747-19.054,19.039c-7.188,9.789-13.015,20.596-19.447,30.882c-4.889,7.819-9.93,17.495-17.109,23.512
			c-2.456,2.058-8.714,4.93-4.974-0.38c2.151-3.054,5.414-5.66,7.788-8.575c13.983-17.169,24.66-36.907,37.52-54.903
			c6.487-9.079,14.911-16.616,23.322-23.895C170.222,238.593,177.689,231.706,186.22,226.15z"/>
		<path style="fill:#231815;" d="M281.015,358.643c7.432,5.058,6.839,9.517,5.809,17.034c-1.42,10.375-5.042,21.343-12.599,28.854
			c-7.824,7.777-18.176,13.41-29.248,14.541c-7.519,0.768-25.742-1.648-27.044-12.043c-0.76-6.061,3.133-0.857,4.866,1.049
			c3.264,3.591,7.292,6.078,12.01,7.304c10.505,2.731,22.626-0.525,31.074-7.104C280.988,396.515,279.966,375.697,281.015,358.643z"
			/>
		<path style="fill:#231815;" d="M235.154,371.841c1.146,3.835,1.844,6.611-1.186,8.193c-2.892,1.51-8.292,0.846-11.291,0.53
			c-6.02-0.634-13.438-0.662-18.794-0.969c-1.617-0.093-4.848-0.8-3.18-3.538c1.742-2.859,8.345,0.559,10.765,0.949
			C219.851,378.361,227.735,375.301,235.154,371.841z"/>
		<path style="fill:#231815;" d="M207.228,381.742c14.923,3.791,2.439,23.709-3.4,30.972c-8.081,10.053-24.092,23.909-37.279,12.546
			c-1.567-1.35-4.285-4.782-0.822-4.909c1.859-0.068,5.527,3.252,7.316,3.986c7.234,2.966,14.771,1.014,20.582-3.997
			C203.746,411.614,208.426,394.621,207.228,381.742z"/>
		<path style="fill:#231815;" d="M141.534,393.52c-3.808,3.36-6.439,7.569-10.65,2.662c-1.709-1.99-2.337-4.618-2.743-7.142
			c-1.501-9.339-0.306-19.298-0.402-28.715c-0.181-17.724-1.922-35.368-5.07-52.81c-0.675-3.739-1.388-5.704-0.2-9.059
			c1.16-3.275,3.07-6.502,4.704-9.558c2.087-3.904,4.434-7.27,7.242-10.652c8.637-10.406,17.731-20.764,27.912-29.695
			c5.516-4.839,11.658-9.927,10.092,0.621c-3.908,26.312-16.324,51.121-21.632,77.223
			C146.283,348.537,144.726,371.176,141.534,393.52z"/>
		<path style="fill:#231815;" d="M138.84,364.858c7.174,2.078,7.637,4.379,7.327,10.859c-0.324,6.77-1.469,13.509-1.743,20.257
			c-0.309,7.601,0.93,16.775,4.762,23.451c1.095,1.907,11.331,11.309,4.2,9.594c-11.767-2.829-10.963-26.923-12.498-35.802
			C139.329,384.202,139.354,374.022,138.84,364.858z"/>
		<path style="fill:#231815;" d="M174.769,430.396c1.921,1.733,5.138,4.522,5.623,7.313c0.439,2.525-1.022,5.839-1.133,8.488
			c-0.333,7.934,2.128,16.674,8.018,22.261c6.568,6.23,16.23,7.218,23.523,12.29c2.592,1.802,12.571,14.147,5.707,16.957
			c-3.072,1.257-2.073-2.302-2.296-4.454c-0.417-4.023-1.692-6.893-4.824-9.559c-6.8-5.79-16.293-7.668-23.51-13.004
			C173.252,461.352,170.609,445.085,174.769,430.396z"/>
		<path style="fill:#231815;" d="M158.321,489.026c4.823-2.802,7.637-3.133,10.858,0.946c3.311,4.193,6.8,8.275,10.24,12.364
			c1.413,1.68,7.696,8.831,10.44,6.847c1.67-1.207-0.129-9.315-0.643-10.852c-0.941-2.814-2.876-4.133-4.256-6.501
			c-1.794-3.08-0.945-4.514,2.446-2.792c2.493,1.266,4.031,5.02,4.752,7.431c1.112,3.716,1.08,7.748,0.53,11.559
			c-0.454,3.143-0.242,3.699-2.833,3.952c-4.442,0.433-12.749-5.712-15.848-8.417C168.665,498.896,163.529,493.851,158.321,489.026z
			"/>
		<path style="fill:#231815;" d="M198.344,497.582c0.789-3.228,1.103-6.746,3.738-6.565c2.633,0.181,4.44,3.062,6.531,4.262
			c1.993,1.144,7.023,1.622,8.308,3.486c0.63,0.913,1.106,2.542-0.495,3.323c-1.71,0.834-3.808-2.034-5.348-2.909
			C207.381,497.078,202.49,497.299,198.344,497.582z"/>
		<path style="fill:#231815;" d="M156.377,431.51c8.047,3.016,7.188,6.864,5.553,13.773c-1.679,7.098-4.176,14.584-6.522,21.254
			c-1.765,5.018-5.995,9.232-9.474,13.107c-3.011,3.353-9.268,7.978-10.643,12.396c-0.759,2.44,3.069,9.493-2.031,6.482
			c-8.808-5.199,8.359-18.285,11.577-21.349c5.946-5.66,6.355-10.689,7.949-18.327C154.759,449.4,156.337,441.17,156.377,431.51z"/>
		<path style="fill:#231815;" d="M161.24,489.965c-1.642,7.078-1.294,7.444-7.887,6.127c-2.746-0.548-4.513-1.052-7.207,0.203
			c-2.049,0.954-4.167,4.887-5.923,5.291c-2.243,0.516-3.25-0.764-2.639-2.635c0.8-2.446,5.883-4.258,7.937-5.091
			C150.784,491.725,155.404,490.163,161.24,489.965z"/>
		<path style="fill:#231815;" d="M249.806,417.069c6.506,2.588,7.477,5.086,6.837,11.4c-0.682,6.727-0.35,15.689,4.337,21.1
			c6.003,6.932,35.201,7.119,33.195,20.384c-0.656,4.34-2.191,2.066-3.715-0.089c-1.886-2.667-2.581-4.983-5.573-6.928
			c-7.149-4.646-16.337-4.761-23.529-9.569C249.373,445.353,249.847,430.207,249.806,417.069z"/>
		<path style="fill:#231815;" d="M258.905,471.874c3.25-7.353,8.488-5.072,11.862,0.387c1.55,2.507,5.303,13.415,0.995,15.767
			c-3.471,1.895-13.958-6.517-16.499-8.262c-3.268-2.244-6.537-4.702-10.235-6.214c-1.821-0.745-5.57-0.839-6.937-2.382
			c-5.13-5.793,9.351-0.323,10.845,0.612c3.733,2.335,12.743,12.599,17.617,11.578c2.013-0.421,1.454-0.631,1.566-2.474
			C268.409,476.095,262.79,472.771,258.905,471.874z"/>
		<path style="fill:#231815;" d="M228.534,418.589c7.721,3.558,7.678,6.653,7.344,14.129c-0.415,9.298-1.808,18.294-9.616,24.193
			c-3.423,2.586-11.952,6.766-9.516,12.578c2.624,6.26,16.242-5.546,21.499-1.635c4.263,3.171-2.436,3.207-4.604,3.563
			c-4.394,0.721-8.613,2.413-13.087,2.688c-2.697,0.166-5.036,0.56-6.177-1.469c-1.495-2.658,0.026-8.376,1.407-10.477
			c1.945-2.96,5.283-4.224,7.795-6.541c2.612-2.409,4-5.445,4.968-8.856C231.241,437.278,228.622,428.112,228.534,418.589z"/>
		<path style="fill:#231815;" d="M270.804,471.917c-0.132-3.553-0.668-6.853,2.211-7.255c2.837-0.396,5.442,2.317,7.725,3.496
			c2.169,1.12,7.471,1.416,8.924,3.375c0.678,0.915,1.337,2.482-0.275,3.392c-1.698,0.959-4.189-2.093-5.783-2.908
			C279.744,470.043,274.795,470.478,270.804,471.917z"/>
		<path style="fill:#231815;" d="M98.996,322.876c0.703,0.89,3.451-3.309,3.645-3.667c1.767-3.272,2.134-7.267-0.592-10.154
			c-4.291-4.545-12.961-3.088-16.986-7.766c-4.016-4.669,2.204-12.936,4.026-17.617c3.23-8.298,7.414-15.739,9.916-24.404
			c2.721-9.426,4.576-19.383,8.732-28.324c2.663-5.73,7.057-10.539,10.985-15.439c10.454-13.04,21.729-25.362,32.06-38.508
			c12.931-16.454,28.711-31.262,45.143-44.22c10.052-7.927,28.39-12.032,34.211-24.309c3.802-8.018-1.674-16.448-5.315-23.41
			c-4.48-8.567-8.092-18.433-9.292-28.081c-1.629-13.097,5.132-22.681,18.016-25.603c5.138-1.165,10.721-1.283,15.851-0.01
			c1.926,0.478,3.916,1.114,5.595,2.201c1.159,0.751,2.572,3.28,3.523,3.697c4.779,2.098,15.829-3.36,16.508-8.441
			c0.851-6.365-6.763-12.738-11.331-15.925c-6.506-4.54-14.27-7.071-22.089-8.112c-16.059-2.138-31.734,2.02-45.359,10.508
			c-12.986,8.09-26.792,20.773-28.592,36.863c-0.969,8.664,3.086,16.172,4.878,24.435c2.077,9.582,2.307,19.529,0.751,29.206
			c-6.112,38.02-37.027,61.292-58.923,90.135c-9.76,12.856-15.994,28.744-21.828,43.66c-5.615,14.357-10.669,28.95-14.129,43.985
			c-3.165,13.752-6.987,28.709-6.947,42.923c0.021,7.317,2.982,12.935,10.31,14.865c5.677,1.495,8.622-2.692,11.468-7.171
			C95.496,330.629,97.373,326.774,98.996,322.876z"/>
		<path style="fill:#231815;" d="M277.503,103.349c-6.978,33.542,37.048,29.663,56.927,25.345c25.94-5.636,57.41-16.799,83.54-6.963
			c-3.021,4.09-7.557,4.608-8.295,10.315c-0.544,4.204,1.194,11.275,6.836,10.803c2.077-0.174,5.388-2.679,7.197-3.575
			c4.49-2.225,8.981-4.449,13.486-6.642c3.119-1.519,8.099-2.716,7.135-6.983c-0.99-4.383-7.929-7.582-11.648-8.795
			c-7.261-2.368-15.38-3.106-22.908-4.13c-9.514-1.294-19.285-2.567-28.908-2.257c-6.709,0.217-13.346,2.109-19.87,3.553
			c-16.049,3.553-32.098,7.989-48.34,10.57C295.774,127.272,279.677,122.911,277.503,103.349z"/>
		<path style="fill:#231815;" d="M238.763,57.014c5.117,1.039,8.509-5.468,3.853-8.411
			C238.271,45.858,231.792,52.456,238.763,57.014z"/>
	</g>
</g>
</svg>
